{
  "accessors": [
    {
      "bufferView": 2,
      "componentType": 5126,
      "count": 30410,
      "max": [
        110.03417205810547,
        47.531654357910156,
        79.25106811523438
      ],
      "min": [
        -109.41271209716797,
        -44.73783874511719,
        16.795387268066406
      ],
      "type": "VEC3"
    },
    {
      "bufferView": 2,
      "byteOffset": 364920,
      "componentType": 5126,
      "count": 30410,
      "max": [
        1.0,
        1.0,
        1.0
      ],
      "min": [
        -1.0,
        -1.0,
        -1.0
      ],
      "type": "VEC3"
    },
    {
      "bufferView": 3,
      "componentType": 5126,
      "count": 30410,
      "max": [
        1.0,
        0.999999463558197,
        0.9999980330467224,
        1.0
      ],
      "min": [
        -1.0,
        -1.0,
        -0.9999936819076538,
        -1.0
      ],
      "type": "VEC4"
    },
    {
      "bufferView": 1,
      "componentType": 5126,
      "count": 30410,
      "max": [
        0.9982112050056458,
        0.999500036239624
      ],
      "min": [
        0.0005000000237487257,
        0.0005000000237487257
      ],
      "type": "VEC2"
    },
    {
      "bufferView": 0,
      "componentType": 5125,
      "count": 166014,
      "type": "SCALAR"
    },
    {
      "bufferView": 2,
      "byteOffset": 729840,
      "componentType": 5126,
      "count": 1184,
      "max": [
        79.79297637939453,
        38.92945861816406,
        17.679012298583984
      ],
      "min": [
        -80.8993911743164,
        -33.46845626831055,
        0.5175137519836426
      ],
      "type": "VEC3"
    },
    {
      "bufferView": 2,
      "byteOffset": 744048,
      "componentType": 5126,
      "count": 1184,
      "max": [
        0.9999449849128723,
        0.9999443888664246,
        0.46760517358779907
      ],
      "min": [
        -0.9999449849128723,
        -0.9999443888664246,
        -1.0
      ],
      "type": "VEC3"
    },
    {
      "bufferView": 1,
      "byteOffset": 243280,
      "componentType": 5126,
      "count": 1184,
      "max": [
        0.5240269899368286,
        0.7028706669807434
      ],
      "min": [
        0.27532774209976196,
        0.6426507830619812
      ],
      "type": "VEC2"
    },
    {
      "bufferView": 0,
      "byteOffset": 664056,
      "componentType": 5125,
      "count": 5904,
      "type": "SCALAR"
    }
  ],
  "asset": {
    "extras": {
      "author": "VISJA FILIP RUMIN (https://sketchfab.com/VISJA)",
      "license": "CC-BY-4.0 (http://creativecommons.org/licenses/by/4.0/)",
      "source": "https://sketchfab.com/3d-models/old-sofa-free-90be7242f24749c3a8e0b0a69c616fc1",
      "title": "Old Sofa (FREE)"
    },
    "generator": "Sketchfab-12.67.0",
    "version": "2.0"
  },
  "bufferViews": [
    {
      "buffer": 0,
      "byteLength": 687672,
      "name": "floatBufferViews",
      "target": 34963
    },
    {
      "buffer": 0,
      "byteLength": 252752,
      "byteOffset": 687672,
      "byteStride": 8,
      "name": "floatBufferViews",
      "target": 34962
    },
    {
      "buffer": 0,
      "byteLength": 758256,
      "byteOffset": 940424,
      "byteStride": 12,
      "name": "floatBufferViews",
      "target": 34962
    },
    {
      "buffer": 0,
      "byteLength": 486560,
      "byteOffset": 1698680,
      "byteStride": 16,
      "name": "floatBufferViews",
      "target": 34962
    }
  ],
  "buffers": [
    {
      "byteLength": 2185240,
      "uri": "scene.bin"
    }
  ],
  "images": [
    {
      "uri": "textures/Material_3_baseColor.jpeg"
    },
    {
      "uri": "textures/Material_3_metallicRoughness.png"
    },
    {
      "uri": "textures/Material_3_normal.jpeg"
    },
    {
      "uri": "textures/material_baseColor.jpeg"
    },
    {
      "uri": "textures/material_metallicRoughness.png"
    }
  ],
  "materials": [
    {
      "doubleSided": true,
      "name": "Material_3",
      "normalTexture": {
        "index": 2
      },
      "occlusionTexture": {
        "index": 1
      },
      "pbrMetallicRoughness": {
        "baseColorTexture": {
          "index": 0
        },
        "metallicRoughnessTexture": {
          "index": 1
        }
      }
    },
    {
      "doubleSided": true,
      "name": "material",
      "occlusionTexture": {
        "index": 4
      },
      "pbrMetallicRoughness": {
        "baseColorTexture": {
          "index": 3
        },
        "metallicRoughnessTexture": {
          "index": 4
        }
      }
    }
  ],
  "meshes": [
    {
      "name": "Sofa_Material #3_0",
      "primitives": [
        {
          "attributes": {
            "NORMAL": 1,
            "POSITION": 0,
            "TANGENT": 2,
            "TEXCOORD_0": 3
          },
          "indices": 4,
          "material": 0,
          "mode": 4
        }
      ]
    },
    {
      "name": "Sofa_1_0",
      "primitives": [
        {
          "attributes": {
            "NORMAL": 6,
            "POSITION": 5,
            "TEXCOORD_0": 7
          },
          "indices": 8,
          "material": 1,
          "mode": 4
        }
      ]
    }
  ],
  "nodes": [
    {
      "children": [
        1
      ],
      "matrix": [
        1.0,
        0.0,
        0.0,
        0.0,
        0.0,
        2.220446049250313e-16,
        -1.0,
        0.0,
        0.0,
        1.0,
        2.220446049250313e-16,
        0.0,
        0.0,
        0.0,
        0.0,
        1.0
      ],
      "name": "Sketchfab_model"
    },
    {
      "children": [
        2
      ],
      "matrix": [
        1.0,
        0.0,
        0.0,
        0.0,
        0.0,
        0.0,
        1.0,
        0.0,
        0.0,
        -1.0,
        0.0,
        0.0,
        0.0,
        0.0,
        0.0,
        1.0
      ],
      "name": "7e58e03efdd84904b6b0737e5e0bd7af.fbx"
    },
    {
      "children": [
        3
      ],
      "name": "RootNode"
    },
    {
      "children": [
        4,
        5
      ],
      "matrix": [
        1.0,
        0.0,
        0.0,
        0.0,
        0.0,
        2.220446049250313e-16,
        -1.0,
        0.0,
        0.0,
        1.0,
        2.220446049250313e-16,
        0.0,
        0.0,
        0.0,
        0.0,
        1.0
      ],
      "name": "Sofa"
    },
    {
      "mesh": 0,
      "name": "Sofa_Material #3_0"
    },
    {
      "mesh": 1,
      "name": "Sofa_1_0"
    }
  ],
  "samplers": [
    {
      "magFilter": 9729,
      "minFilter": 9987,
      "wrapS": 10497,
      "wrapT": 10497
    }
  ],
  "scene": 0,
  "scenes": [
    {
      "name": "Sketchfab_Scene",
      "nodes": [
        0
      ]
    }
  ],
  "textures": [
    {
      "sampler": 0,
      "source": 0
    },
    {
      "sampler": 0,
      "source": 1
    },
    {
      "sampler": 0,
      "source": 2
    },
    {
      "sampler": 0,
      "source": 3
    },
    {
      "sampler": 0,
      "source": 4
    }
  ]
}
